<svg id="Capa_1" enable-background="new 0 0 504.5 504.5" height="512" viewBox="0 0 504.5 504.5" width="512" xmlns="http://www.w3.org/2000/svg"><g><path d="m210.998 285v196.592l-24.87 8.29c-3.93 1.31-6.053 5.557-4.744 9.487 1.31 3.93 5.559 6.054 9.487 4.744l29.998-10c3.063-1.021 5.128-3.887 5.128-7.115v-201.998z" fill="#ffd9d4"/><path d="m121 200h-15c0-12.407 10.094-22.5 22.5-22.5h105v15h-105c-4.136 0-7.5 3.365-7.5 7.5z" fill="#ffd9d4"/><path d="m136 40.317h15v174.683h-15z" fill="#029965"/><path d="m143.5 222.5h-15c-12.406 0-22.5-10.093-22.5-22.5 0-4.142 3.357-7.5 7.5-7.5s7.5 3.358 7.5 7.5c0 4.136 3.364 7.5 7.5 7.5h15c4.143 0 7.5 3.358 7.5 7.5s-3.357 7.5-7.5 7.5z" fill="#ffd9d4"/><path d="m293.5 90-15 240h30c16.569 0 30-13.431 30-30 16.569 0 30-13.432 30-30 16.569 0 30-13.431 30-30 0-75-105-75.001-105-150z" fill="#ffe2a8"/><path d="m308.5 300c16.569 0 30-13.432 30-30 16.569 0 30-13.431 30-30 0-75-75-75.001-75-150h-90v45c0 16.568 13.431 30 30 30l45 165c16.569 0 30-13.431 30-30z" fill="#fff0d3"/><circle cx="398.5" cy="50" fill="#fff0d3" r="15"/><path d="m172.763 21.261c-2.122-6.531-8.297-10.598-14.835-10.351-1.785-6.294-7.562-10.91-14.428-10.91s-12.643 4.616-14.428 10.911c-6.538-.247-12.713 3.82-14.835 10.351-2.122 6.53.483 13.451 5.918 17.094-2.255 6.142-.295 13.272 5.26 17.308s12.941 3.697 18.085-.346c5.144 4.043 12.53 4.382 18.085.346s7.515-11.166 5.26-17.308c5.434-3.644 8.039-10.564 5.918-17.095z" fill="#ff8d7e"/><circle cx="143.5" cy="30.752" fill="#ffe2a8" r="7.5"/><path d="m91 105.004c0 24.853 20.147 45 45 45 0-24.853-20.147-45-45-45z" fill="#80bf63"/><path d="m248.5 165h-25c-11.046 0-20 8.954-20 20v100c0 24.853 20.147 45 45 45s45-20.147 45-45z" fill="#ffd9d4"/><circle cx="248.5" cy="22.5" fill="#fff0d3" r="22.5"/><path d="m248.5 45v90c24.853 0 45-20.147 45-45z" fill="#ffb4a9"/><path d="m248.5 45-45 45c0 24.853 20.147 45 45 45 8.284 0 15-20.147 15-45s-6.716-45-15-45z" fill="#ffd9d4"/><path d="m248.5 45c-24.853 0-45 20.147-45 45 24.853 0 45-20.147 45-45z" fill="#fff0d3"/><path d="m293.5 90c0-24.853-20.147-45-45-45 0 24.853 20.147 45 45 45z" fill="#ffe2a8"/><path d="m308.5 177.5c45.491 0 82.5-37.009 82.5-82.5 0-4.142 3.358-7.5 7.5-7.5s7.5 3.358 7.5 7.5c0 53.762-43.738 97.5-97.5 97.5h-29.993v-15z" fill="#ffb4a9"/><path d="m308.5 467v-282c0-11.046-8.954-20-20-20h-30l10 307c0 24.853 30.147 25 55 25h15c0-16.569-13.431-30-30-30z" fill="#ff6753"/><path d="m278.5 452v-267c0-11.046-8.954-20-20-20h-10v287c0 24.853 20.147 45 45 45h30c-24.853 0-45-20.147-45-45z" fill="#ff8d7e"/></g></svg>