<svg height="512pt" viewBox="0 -53 512.00002 512" width="512pt" xmlns="http://www.w3.org/2000/svg"><path d="m255.785156 406.386719c-41.554687 0-81.8125-11.9375-116.425781-34.527344-6.9375-4.527344-8.890625-13.820313-4.363281-20.761719 4.527344-6.9375 13.820312-8.890625 20.757812-4.359375 29.726563 19.394531 64.3125 29.648438 100.03125 29.648438 35.332032 0 69.609375-10.050781 99.121094-29.0625 6.964844-4.488281 16.246094-2.480469 20.734375 4.484375 4.484375 6.964844 2.476563 16.246094-4.488281 20.734375-34.363282 22.140625-74.257813 33.84375-115.367188 33.84375zm0 0" fill="#cc8135"/><path d="m354.90625 347.324219c-29.398438 18.941406-63.527344 28.984375-98.71875 29.058593v30c40.964844-.074218 80.710938-11.769531 114.964844-33.839843 6.964844-4.488281 8.976562-13.769531 4.488281-20.734375s-13.769531-8.972656-20.734375-4.484375zm0 0" fill="#a15615"/><path d="m68.039062 194.234375c-4.335937 0-8.476562-1.878906-11.332031-5.175781-.460937-.53125-11.351562-13.167969-21.53125-30.984375-14.394531-25.199219-20.257812-47.929688-17.429687-67.5625 6.0625-42.023438 32.351562-82.105469 33.46875-83.789063 2.59375-3.921875 6.875-6.398437 11.566406-6.691406 4.695312-.292969 9.25 1.628906 12.3125 5.191406.460938.539063 11.410156 13.34375 21.652344 31.332032 14.484375 25.441406 20.394531 48.296874 17.5625 67.929687-6.078125 42.160156-32.753906 81.558594-33.886719 83.214844-2.625 3.839843-6.882813 6.242187-11.523437 6.511719-.285157.011718-.574219.023437-.859376.023437zm-35.445312-101.582031h.011719zm0 0" fill="#b4d241"/><path d="m55.320312 263.105469c-1.832031-6.574219-4.050781-15.746094-5.605468-26.105469-4.300782-28.675781-1.527344-51.964844 8.238281-69.226562 20.898437-36.921876 59.972656-64.722657 61.625-65.890626 3.839844-2.703124 8.71875-3.457031 13.191406-2.03125 4.476563 1.421876 8.023438 4.859376 9.589844 9.285157.238281.664062 5.816406 16.546875 8.851563 37 4.300781 28.933593 1.523437 52.355469-8.242188 69.617187-20.964844 37.046875-60.152344 64.070313-61.808594 65.203125-3.835937 2.617188-8.667968 3.3125-13.085937 1.878907-4.417969-1.429688-7.925781-4.828126-9.492188-9.199219-.117187-.324219-1.511719-4.242188-3.261719-10.53125zm0 0" fill="#8ca52d"/><path d="m68.109375 300.152344c-5.84375-3.539063-13.742187-8.695313-21.972656-15.179688-22.777344-17.9375-36.714844-36.804687-41.425781-56.066406v-.003906c-10.074219-41.210938-.65625-88.234375-.25-90.214844.941406-4.597656 3.980468-8.492188 8.214843-10.519531 4.234375-2.027344 9.171875-1.957031 13.347657.191406.628906.324219 15.574218 8.070313 31.796874 20.890625 22.953126 18.128906 36.980469 37.09375 41.691407 56.359375 10.109375 41.347656.078125 87.882813-.351563 89.839844-1 4.535156-4.046875 8.355469-8.246094 10.335937-4.199218 1.984375-9.078124 1.910156-13.214843-.199218-.308594-.152344-4.007813-2.054688-9.589844-5.433594zm0 0" fill="#738c28"/><path d="m138.957031 375.707031c-6.828125 0-16.257812-.320312-26.65625-1.601562-28.777343-3.546875-50.46875-12.460938-64.480469-26.5-29.964843-30.035157-46.269531-75.132813-46.949218-77.039063-1.574219-4.421875-.992188-9.324218 1.578125-13.253906 2.570312-3.925781 6.832031-6.421875 11.515625-6.746094.703125-.050781 17.5-1.167968 38.023437 1.394532 29.023438 3.617187 50.84375 12.570312 64.851563 26.609374 30.066406 30.132813 45.59375 75.132813 46.238281 77.03125 1.496094 4.398438.871094 9.238282-1.695313 13.109376-2.5625 3.875-6.777343 6.339843-11.410156 6.679687-.339844.023437-4.488281.316406-11.015625.316406zm0 0" fill="#5a781e"/><path d="m443.101562 194.207031c-4.644531-.265625-8.898437-2.671875-11.523437-6.507812-1.132813-1.65625-27.808594-41.054688-33.886719-83.214844-2.832031-19.636719 3.078125-42.488281 17.5625-67.933594 10.242188-17.988281 21.191406-30.792969 21.652344-31.328125 3.0625-3.566406 7.617188-5.484375 12.3125-5.1953122 4.691406.2968752 8.976562 2.7734372 11.570312 6.6914062 1.113282 1.683594 27.402344 41.769531 33.464844 83.792969 2.832032 19.632812-3.03125 42.359375-17.425781 67.558593-10.183594 17.820313-21.074219 30.457032-21.535156 30.984376-2.855469 3.296874-6.996094 5.175781-11.332031 5.175781-.285157.003906-.574219-.007813-.859376-.023438zm36.292969-101.554687h.011719zm0 0" fill="#8ca52d"/><path d="m453.417969 273.636719c-1.566407 4.371093-5.074219 7.769531-9.492188 9.199219-4.417969 1.433593-9.25.738281-13.085937-1.882813-1.65625-1.128906-40.84375-28.152344-61.808594-65.199219-9.765625-17.261718-12.542969-40.683594-8.242188-69.617187 3.035157-20.453125 8.613282-36.339844 8.851563-37.003907 1.566406-4.421874 5.117187-7.859374 9.589844-9.28125 4.472656-1.425781 9.351562-.671874 13.191406 2.03125 1.652344 1.167969 40.726563 28.964844 61.625 65.890626 9.769531 17.261718 12.539063 40.550781 8.238281 69.222656-1.554687 10.363281-3.773437 19.53125-5.605468 26.109375-1.75 6.289062-3.144532 10.207031-3.261719 10.53125zm0 0" fill="#738c28"/><path d="m434.304688 305.585938c-4.136719 2.109374-9.019532 2.183593-13.21875.203124-4.199219-1.984374-7.242188-5.800781-8.242188-10.335937-.433594-1.960937-10.460938-48.492187-.351562-89.84375 4.707031-19.265625 18.734374-38.226563 41.6875-56.359375 16.226562-12.820312 31.171874-20.566406 31.796874-20.886719 4.175782-2.152343 9.113282-2.222656 13.347657-.195312 4.234375 2.027343 7.273437 5.921875 8.21875 10.519531.402343 1.984375 9.820312 49.003906-.253907 90.21875-4.710937 19.265625-18.648437 38.128906-41.425781 56.066406-8.230469 6.484375-16.128906 11.644532-21.96875 15.179688-5.585937 3.378906-9.285156 5.28125-9.589843 5.433594zm0 0" fill="#5a781e"/><path d="m362.027344 375.390625c-4.632813-.339844-8.847656-2.804687-11.410156-6.675781-2.566407-3.875-3.191407-8.714844-1.695313-13.113282.644531-1.898437 16.171875-46.898437 46.238281-77.027343 14.007813-14.042969 35.828125-22.996094 64.851563-26.613281 20.523437-2.5625 37.320312-1.445313 38.023437-1.394532 4.683594.324219 8.941406 2.820313 11.515625 6.75 2.570313 3.925782 3.152344 8.832032 1.578125 13.253906-.679687 1.902344-16.980468 47.003907-46.949218 77.035157v.003906c-14.011719 14.035156-35.703126 22.953125-64.480469 26.496094-10.398438 1.285156-19.828125 1.605469-26.65625 1.605469-6.527344-.003907-10.675781-.296876-11.015625-.320313zm0 0" fill="#4b5f1e"/></svg>