<svg id="Layer_1" enable-background="new 0 0 509.979 509.979" height="512" viewBox="0 0 509.979 509.979" width="512" xmlns="http://www.w3.org/2000/svg"><g><path id="XMLID_744_" d="m209.989 289.827v24.981c0 1.502-.231 2.947-.64 4.317l15.602 30.804 30.037 30.049 10-48.333-10-31.667-22.82-19.333z" fill="#6d3327"/><path id="XMLID_1162_" d="m299.989 314.809v-24.983l-24.667-9.18-20.333 19.333v80l27.84-27.12 17.8-33.732c-.408-1.371-.64-2.816-.64-4.318z" fill="#56251d"/><path id="XMLID_1059_" d="m202.314 7.253c-2.124.444-4.292.67-6.448.67h-25.445c-30.236 0-54.623 28.541-63.088 56.734-10.717 35.701 5.941 74.794 37.926 88.999l5.113 2.271 104.617-95.948 10-26.666-10-33.313c-17.719 0-35.439 2.417-52.675 7.253z" fill="#535262"/><path id="XMLID_1060_" d="m402.645 64.657c-8.463-28.193-32.851-56.734-63.087-56.734h-25.446c-2.155 0-4.322-.226-6.447-.67-17.236-4.836-34.956-7.253-52.676-7.253v59.979l104.614 95.95 5.116-2.273c31.984-14.205 48.643-53.298 37.926-88.999z" fill="#464553"/><path id="XMLID_679_" d="m149.989 194.979c0 52.805 39.184 96.623 90 103.924l3.25-54.674-13.271-50.25z" fill="#a24f3f"/><path id="XMLID_601_" d="m269.989 298.902c50.816-7.301 90-51.119 90-103.924l-41-7-54 24.334z" fill="#87402e"/><path id="XMLID_592_" d="m180.312 91.157c-19.395 19.569-30.323 45.891-30.323 73.821l105 50.972 10-38.971-10-27.001z" fill="#a24f3f"/><path id="XMLID_544_" d="m329.975 91.489-74.985 58.489v65.972l105-50.972c-.001-27.705-10.657-53.758-30.015-73.489z" fill="#87402e"/><path id="XMLID_1165_" d="m164.989 164.979h-15v30h15c41.355 0 75 33.645 75 75v28.924c4.9.704 9.907 1.076 15 1.076l10-45.75-10-38.278c-18.388-30.517-51.848-50.972-90-50.972z" fill="#87402e"/><path id="XMLID_398_" d="m344.989 164.979c-38.151 0-71.611 20.455-90 50.972v84.028c5.093 0 10.1-.372 15-1.076v-28.924c0-41.355 33.645-75 75-75h15v-30z" fill="#6d3327"/><path d="m254.989 59.979c-27.594 0-54.669 10.992-74.677 31.179l4.159 9.403c10.732 29.586 38.992 49.418 70.518 49.418l10-52.148z" fill="#464553"/><path d="m329.236 90.733c-2.635-2.636-5.412-5.134-8.224-7.399-18.454-14.953-41.947-23.355-66.023-23.355v90c31.423 0 59.604-19.708 70.414-49.134l4.571-9.355c-.246-.253-.488-.508-.738-.757z" fill="#2e2d32"/><path id="XMLID_387_" d="m179.989 329.979h-15.5c-49.351 0-89.5 40.149-89.5 89.5v60.5l43 4.5 82.5-77.25-5.5-57.25-.459-13.944z" fill="#a24f3f"/><path id="XMLID_380_" d="m254.989 429.979-18.75-35-13.658-8.211-147.592 123.211h180l10-42z" fill="#a24f3f"/><path id="XMLID_379_" d="m287.397 386.768-13.658 8.211-18.75 35v80h180z" fill="#87402e"/><path id="XMLID_375_" d="m345.489 329.979h-15.5l-16.32 8.427 1.32 11.573-7.5 66 83.25 70.5 44.25-6.5v-60.5c0-49.351-40.149-89.5-89.5-89.5z" fill="#87402e"/><path id="XMLID_1062_" d="m209.35 319.126c-1.532 5.131-5.706 9.13-10.944 10.406-1.1.269-2.24.427-3.416.441-.057 0-.113.005-.17.005h-14.83l6.552 8.736 8.448 11.264 14.361 29.148 13.23 7.641 32.408 43.211 10-28.667-10-21.333z" fill="#ffde51"/><path id="XMLID_1067_" d="m315.159 329.979c-.057 0-.113-.005-.17-.005-1.177-.015-2.316-.173-3.416-.441-5.238-1.276-9.412-5.275-10.944-10.406l-45.64 60.853v50l32.408-43.211 15.952-11.268 11.64-25.521 15-20h-14.83z" fill="#fdbd4f"/><path id="XMLID_373_" d="m314.989 359.979v-10l-27.592 36.789c-.293-1.618-.551-3.247-.792-4.882 10.637 72.361 73.115 128.093 148.384 128.093v-30c-66.168 0-120-53.832-120-120z" fill="#04b7a1"/><path id="XMLID_1085_" d="m194.989 359.979c0 66.168-53.832 120-120 120v30c73.567 0 134.925-53.239 147.592-123.211l-27.592-36.789z" fill="#ff5e8f"/></g></svg>