<svg id="Capa_1" enable-background="new 0 0 512 512" height="512" viewBox="0 0 512 512" width="512" xmlns="http://www.w3.org/2000/svg"><g><g><path d="m436.154 136h30v376h-30z" fill="#3d4566"/></g><path d="m376.154 271h45c24.853 0 45-20.147 45-45v-15h-60z" fill="#fb9"/><path d="m106.154 271h-45c-24.853 0-45-20.147-45-45v-15h60z" fill="#ffd9b3"/><path d="m406.154 211h-105l-15 20.684v52.579l15 16.737c0 49.706 40.294 90 90 90h15z" fill="#e1e6f0"/><path d="m76.154 211h105l15 20.684v52.579l-15 16.737c0 49.706-40.294 90-90 90h-15z" fill="#f3f5f9"/><path d="m278.89 346h-37.736-38.527l-21.473 15v151h60 60v-151z" fill="#f3f5f9"/><path d="m301.154 361-22.264-15h-37.736v166h60z" fill="#e1e6f0"/><path d="m241.154 211h-53.789l17.499 32.499 28.79 28.79 7.5-3.378 19.79-8.912 33.999-48.999z" fill="#cfd7e6"/><path d="m294.943 211h-53.789v57.911l19.79-8.912z" fill="#b6c3d8"/><path d="m254.865 293.5 22.474 22.473 23.815 8.816v-77.578l-24.447 9.447z" fill="#b6c3d8"/><path d="m301.154 211h-6.211l-61.289 61.289 21.211 21.211 46.289-46.289z" fill="#cfd7e6"/><path d="m261.812 312.867-20.658-20.658-33.816-33.816-26.184-11.182v83.789l21.473 15h38.527 38.685l.06-.044z" fill="#e1e6f0"/><path d="m279.899 345.956-18.087-33.089-20.658-20.658v53.791h38.685z" fill="#cfd7e6"/><path d="m282.931 0h-41.777-41.778l-18.222 91 22.421 15h37.579 33.948l26.052-15z" fill="#4d5e80"/><path d="m301.154 91-18.223-91h-41.777v106h33.948z" fill="#3d4566"/><path d="m301.154 91h-60-60c-9.496 12.565-15 28.035-15 45 0 41.42 33.578 75 75 75s75-33.58 75-75c0-16.965-5.504-32.435-15-45z" fill="#ffd9b3"/><path d="m316.154 136c0-16.965-5.504-32.435-15-45h-60v120c41.422 0 75-33.58 75-75z" fill="#fb9"/><g><path d="m451.154 158.427-44.692-50.658 44.692-99.331 44.692 100.331z" fill="#f3f5f9"/></g><path d="m241.154 264.789-53.789-53.789h-6.211v36.211l60 60 38.745 38.745 21.255-14.956v-6.211z" fill="#f3f5f9"/><path d="m301.154 331v-6.211l-60-60v42.422l38.745 38.745z" fill="#e1e6f0"/><path d="m241.154 331h-60v30h60 60v-30z" fill="#4d5e80"/><path d="m241.154 331h60v30h-60z" fill="#3d4566"/></g></svg>