<svg id="Capa_1" enable-background="new 0 0 512 512" height="512" viewBox="0 0 512 512" width="512" xmlns="http://www.w3.org/2000/svg"><g><g><path d="m256 0c-102.958 0-137.798 43.969-149.362 100.713-7.243 35.536 17.852 76.083 17.852 113.977 0 14.734-21.718 31.722-18.886 49.958 8.82 56.803 30.651 125.712 60.942 176.358l89.454 23.249 12.36-210.228z" fill="#ae0000"/><path d="m166.546 441.005c24.931 41.682 55.592 70.995 89.454 70.995l12.36-70.995z" fill="#de4c12"/><path d="m256 464.255 89.454-23.25c30.292-50.646 52.122-119.555 60.942-176.358 2.832-18.236-18.886-35.224-18.886-49.958 0-37.894 25.095-78.44 17.852-113.977-11.564-56.743-46.404-100.712-149.362-100.712z" fill="#830012"/><path d="m256 441.005v70.995c33.862 0 64.523-29.313 89.454-70.995z" fill="#ae0000"/></g><path d="m180.321 80.012c-24.597 0-49.748 7.12-73.68 20.701-7.243 35.537-5.359 76.082-5.359 113.976 0 14.734 1.492 31.722 4.324 49.958 24.241 13.967 49.765 21.286 74.716 21.286 25.282 0 51.152-7.509 75.68-21.839l17.415-81.122-17.417-81.121c-24.528-14.33-50.398-21.839-75.679-21.839z" fill="#de4c12"/><path d="m405.36 100.713c-23.933-13.581-49.083-20.701-73.68-20.701-25.281 0-51.152 7.509-75.679 21.839v162.244c24.528 14.33 50.398 21.839 75.679 21.839 24.951 0 50.474-7.32 74.715-21.286 2.832-18.235 4.324-35.224 4.324-49.958 0-37.895 1.884-78.44-5.359-113.977z" fill="#ae0000"/><g><path d="m208.604 349.597 47.396 29.591 7.44-74.145-7.44-122.07z" fill="#830012"/><path d="m256 182.973v196.215l47.396-29.591z" fill="#63000e"/><path d="m180.32 143.746c-41.797 0-75.68 39.226-75.68 39.226s33.883 39.227 75.68 39.227 75.68-39.227 75.68-39.227-33.883-39.226-75.68-39.226z" fill="#ecbd2c"/><path d="m331.68 143.746c-41.797 0-75.68 39.226-75.68 39.226s33.883 39.227 75.68 39.227 75.68-39.227 75.68-39.227-33.883-39.226-75.68-39.226z" fill="#e68f21"/></g></g></svg>