<svg height="511pt" viewBox="0 0 511.99996 511" width="511pt" xmlns="http://www.w3.org/2000/svg"><path d="m500.8125 512.496094-17.324219-68.152344c-8.160156-32.386719-25.09375-57.0625-46.007812-67.050781l-59.472657-28.410157c-6.550781-3.128906-11.042968-12.769531-11.042968-23.707031v-61.207031l-221.742188-.601562v61.597656c0 10.988281-4.488281 20.675781-11.039062 23.820312l-59.472656 28.539063c-20.910157 10.035156-37.84375 34.828125-46.003907 67.367187l-17.398437 67.804688zm0 0" fill="#f2984e"/><path d="m256 263.667969v248.828125h244.8125l-17.324219-68.152344c-8.160156-32.386719-25.09375-57.0625-46.007812-67.050781l-59.472657-28.410157c-6.550781-3.128906-11.042968-12.769531-11.042968-23.707031v-61.207031zm0 0" fill="#cc8135"/><path d="m135.273438 260.136719c-.539063 0-1.078126-.027344-1.617188-.085938-47-5.085937-85.730469-29.101562-106.261719-65.890625-16.453125-29.484375-18.609375-63.15625-5.769531-90.074218 7.875-16.515626 7.453125-34.53125-1.25-53.546876-6.746094-14.742187-16.019531-24.46875-16.113281-24.5625-4.808594-4.929687-5.640625-12.5-2.023438-18.359374 3.621094-5.859376 10.761719-8.5 17.324219-6.402344 1.023438.324218 25.265625 8.160156 48.015625 23.476562 42.304687 28.484375 45.101563 58.9375 40 79.464844-4.316406 17.363281-3.070313 26.742188 26.90625 37.734375 5.566406 2.039063 9.410156 7.167969 9.804687 13.082031l5.949219 89.167969c.292969 4.421875-1.382812 8.75-4.582031 11.820313-2.804688 2.691406-6.535156 4.175781-10.382812 4.175781zm0 0" fill="#414952"/><path d="m377.21875 259.789062c-3.847656 0-7.574219-1.480468-10.378906-4.171874-3.199219-3.066407-4.878906-7.394532-4.585938-11.816407l5.871094-88.816406c.390625-5.917969 4.234375-11.050781 9.804688-13.09375 13.660156-5.007813 22.054687-10.140625 25.660156-15.695313 2.125-3.269531 4.140625-8.730468.832031-22.035156-5.105469-20.53125-2.308594-50.984375 40-79.46875 22.75-15.3125 46.992187-23.152344 48.015625-23.476562 6.558594-2.097656 13.703125.542968 17.324219 6.402344 3.617187 5.859374 2.785156 13.429687-2.023438 18.359374-.058593.0625-9.703125 10.183594-16.460937 25.335938-8.363282 18.734375-8.667969 36.492188-.902344 52.773438 12.878906 27 10.765625 60.683593-5.652344 90.105468-20.402344 36.558594-58.996094 60.4375-105.886718 65.511719-.539063.058594-1.078126.085937-1.617188.085937zm0 0"/><path d="m255.5 335.996094c-33.800781 0-50.816406-6.148438-52.644531-6.847656-.039063-.015626-.074219-.027344-.109375-.042969-27.21875-10.679688-50.453125-29.089844-67.195313-53.242188-17.132812-24.722656-26.191406-53.757812-26.191406-83.96875 0-61.886719 38.699219-112.5625 96.761719-127.417969 10.660156-9.8125 29.285156-23.230468 51.4375-23.230468 22.722656 0 41.6875 14.007812 52.460937 24.179687 55.878907 15.609375 93.121094 65.902344 93.121094 126.46875 0 30.289063-9.101563 59.390625-26.324219 84.152344-16.820312 24.195313-40.15625 42.601563-67.484375 53.222656-.269531.105469-.542969.203125-.820312.292969-.8125.261719-20.273438 6.433594-53.011719 6.433594zm48.394531-20.707032h.011719zm-90.210937-14.117187c.007812 0 .011718.003906.019531.003906.003906.003907.007813.003907.007813.003907s-.011719-.003907-.027344-.007813zm0 0" fill="#ffedd6"/><path d="m256 335.992188c32.433594-.0625 51.703125-6.167969 52.511719-6.429688.277343-.089844.550781-.1875.820312-.292969 27.324219-10.625 50.664063-29.027343 67.484375-53.222656 17.21875-24.765625 26.320313-53.863281 26.320313-84.152344 0-60.570312-37.238281-110.863281-93.117188-126.472656-10.773437-10.167969-29.738281-24.175781-52.460937-24.175781-.523438 0-1.042969.015625-1.558594.027344zm0 0" fill="#ffbe85"/><path d="m310.019531 65.421875c-10.773437-10.167969-29.738281-24.175781-52.460937-24.175781-22.152344 0-40.777344 13.414062-51.4375 23.230468-55.925782 14.308594-93.871094 61.855469-96.589844 120.636719l59.4375 29.246094c7.148438 3.527344 12.292969 11.597656 13.425781 21.066406.007813.070313.019531.140625.027344.210938l11.019531 82.070312-13.191406 21.511719c-11.574219 18.878906-12.699219 43.136719-2.9375 63.304688 8.660156 17.890624 24.109375 29.40625 42.378906 31.59375 11.613282 1.390624 24.082032 2.085937 36.558594 2.085937 12.390625 0 24.78125-.6875 36.332031-2.058594 18.304688-2.175781 33.769531-13.714843 42.425781-31.660156 9.765626-20.246094 8.578126-44.550781-3.09375-63.433594l-13.199218-21.347656 11.296875-82.121094c.011719-.070312.023437-.140625.03125-.214843 1.15625-9.421876 6.292969-17.457032 13.484375-21.007813l59.410156-29.722656c-2.847656-57.296875-39.289062-104.234375-92.917969-119.214844zm0 0" fill="#f2984e"/><path d="m310.019531 65.421875c-10.773437-10.167969-29.738281-24.175781-52.460937-24.175781-.519532 0-1.039063.015625-1.558594.027344v394.925781c.082031 0 .167969.003906.25.003906 12.386719 0 24.78125-.6875 36.328125-2.058594 18.308594-2.175781 33.773437-13.714843 42.429687-31.660156 9.765626-20.246094 8.578126-44.550781-3.09375-63.433594l-13.199218-21.347656 11.296875-82.121094c.011719-.070312.019531-.140625.027343-.214843 1.160157-9.421876 6.296876-17.457032 13.488282-21.007813l59.410156-29.722656c-2.847656-57.296875-39.289062-104.234375-92.917969-119.214844zm0 0" fill="#cc8135"/><path d="m254.457031 169.90625c-2.152343 0-4.304687-.464844-6.300781-1.386719l-35.046875-16.214843c-7.519531-3.476563-10.792969-12.390626-7.316406-19.910157 3.480469-7.519531 12.394531-10.792969 19.914062-7.316406l29.042969 13.4375 32.535156-13.65625c7.636719-3.207031 16.429688.390625 19.632813 8.027344 3.207031 7.640625-.386719 16.429687-8.027344 19.636719l-38.632813 16.214843c-1.855468.777344-3.832031 1.167969-5.800781 1.167969zm0 0" fill="#ffedd6"/><path d="m287.285156 124.859375-31.285156 13.132813v31.832031c1.453125-.148438 2.886719-.511719 4.257812-1.085938l38.636719-16.214843c7.636719-3.207032 11.230469-11.996094 8.027344-19.636719-3.207031-7.636719-12-11.234375-19.636719-8.027344zm0 0" fill="#ffbe85"/><path d="m256.25 436.203125c-12.472656 0-24.945312-.695313-36.558594-2.085937-15.777344-1.886719-29.5-10.742188-38.640625-24.929688-10.476562-16.269531-13.195312-37.117188-7.277343-55.769531.261718-.816407.585937-1.605469.972656-2.351563 9.902344-24.570312 39.144531-40.527344 76.945312-41.800781 17.589844-.59375 35.195313 2.324219 49.589844 8.21875 17.398438 7.125 29.820312 18.289063 35.917969 32.285156.109375.257813.214843.519531.3125.78125 6.996093 18.894531 4.929687 40.375-5.523438 57.464844-8.988281 14.695313-23.355469 24.222656-39.40625 26.128906-11.550781 1.371094-23.941406 2.058594-36.332031 2.058594zm0 0" fill="#606a70"/><path d="m337.199219 349.769531c-6.097657-13.996093-18.519531-25.160156-35.917969-32.285156-13.21875-5.414063-29.144531-8.308594-45.28125-8.285156v127c.085938 0 .167969.003906.25.003906 12.390625 0 24.78125-.6875 36.328125-2.058594 16.054687-1.90625 30.417969-11.429687 39.410156-26.128906 10.453125-17.089844 12.515625-38.570313 5.523438-57.460937-.097657-.265626-.203125-.527344-.3125-.785157zm0 0" fill="#414952"/><path d="m215.992188 433.945312c-8.285157 0-15-6.714843-15-15v-20.003906c0-8.285156 6.714843-15 15-15 8.285156 0 15 6.714844 15 15v20.003906c0 8.285157-6.714844 15-15 15zm0 0"/><path d="m296.007812 433.945312c-8.285156 0-15-6.714843-15-15v-20.003906c0-8.285156 6.714844-15 15-15 8.285157 0 15 6.714844 15 15v20.003906c0 8.285157-6.714843 15-15 15zm0 0"/><path d="m256 512.457031c-35.359375 0-64.128906-28.765625-64.128906-64.128906 0-13.53125 4.097656-27.675781 10.960937-37.835937 4.640625-6.867188 13.964844-8.671876 20.828125-4.03125 6.863282 4.636718 8.667969 13.960937 4.03125 20.824218-3.480468 5.152344-5.820312 13.609375-5.820312 21.042969 0 18.820313 15.308594 34.128906 34.128906 34.128906s34.128906-15.308593 34.128906-34.128906c0-7.730469-2.535156-15.730469-6.777344-21.402344-4.960937-6.632812-3.609374-16.03125 3.023438-20.996093 6.632812-4.960938 16.035156-3.609376 21 3.023437 8.105469 10.835937 12.753906 25.1875 12.753906 39.375 0 35.359375-28.769531 64.128906-64.128906 64.128906zm0 0" fill="#fff566"/><path d="m175.597656 231.910156c-2.242187 0-4.515625-.503906-6.65625-1.566406l-25.113281-12.464844c-7.421875-3.683594-10.453125-12.683594-6.769531-20.105468 3.683594-7.417969 12.6875-10.449219 20.105468-6.765626l25.113282 12.464844c7.421875 3.683594 10.449218 12.683594 6.765625 20.105469-2.617188 5.277344-7.929688 8.332031-13.445313 8.332031zm0 0" fill="#414952"/><path d="m336.828125 231.949219c-5.519531 0-10.828125-3.054688-13.449219-8.335938-3.683594-7.417969-.652344-16.421875 6.765625-20.101562l24.984375-12.402344c7.421875-3.683594 16.421875-.652344 20.105469 6.769531 3.683594 7.417969.652344 16.421875-6.765625 20.101563l-24.984375 12.402343c-2.140625 1.0625-4.417969 1.566407-6.65625 1.566407zm0 0"/></svg>